{
	"asset":{
		"generator":"Khronos glTF Blender I/O v4.5.47",
		"version":"2.0"
	},
	"scene":0,
	"scenes":[
		{
			"name":"Scene",
			"nodes":[
				1
			]
		}
	],
	"nodes":[
		{
			"mesh":0,
			"name":"butaca_collider",
			"scale":[
				0.36233413219451904,
				0.36233413219451904,
				0.36233413219451904
			]
		},
		{
			"children":[
				0
			],
			"mesh":1,
			"name":"butaca"
		}
	],
	"materials":[
		{
			"doubleSided":true,
			"name":"stage",
			"normalTexture":{
				"index":0
			},
			"pbrMetallicRoughness":{
				"baseColorTexture":{
					"index":1
				},
				"metallicRoughnessTexture":{
					"index":2
				}
			}
		}
	],
	"meshes":[
		{
			"name":"Cube.007",
			"primitives":[
				{
					"attributes":{
						"POSITION":0,
						"NORMAL":1,
						"TEXCOORD_0":2
					},
					"indices":3
				}
			]
		},
		{
			"name":"Cube.012",
			"primitives":[
				{
					"attributes":{
						"POSITION":4,
						"NORMAL":5,
						"TEXCOORD_0":6
					},
					"indices":7,
					"material":0
				}
			]
		}
	],
	"textures":[
		{
			"sampler":0,
			"source":0
		},
		{
			"sampler":0,
			"source":1
		},
		{
			"sampler":0,
			"source":2
		}
	],
	"images":[
		{
			"mimeType":"image/png",
			"name":"stage_Normal",
			"uri":"Textures/stage_Normal.png"
		},
		{
			"mimeType":"image/png",
			"name":"stage_AlbedoTransparency",
			"uri":"Textures/stage_AlbedoTransparency.png"
		},
		{
			"mimeType":"image/png",
			"name":"stage_MetallicRoughness",
			"uri":"Textures/stage_MetallicRoughness.png"
		}
	],
	"accessors":[
		{
			"bufferView":0,
			"componentType":5126,
			"count":24,
			"max":[
				0.8279168009757996,
				0.8224891424179077,
				0.69267737865448
			],
			"min":[
				-0.8279168009757996,
				0.013599365949630737,
				-0.5104084610939026
			],
			"type":"VEC3"
		},
		{
			"bufferView":1,
			"componentType":5126,
			"count":24,
			"type":"VEC3"
		},
		{
			"bufferView":2,
			"componentType":5126,
			"count":24,
			"type":"VEC2"
		},
		{
			"bufferView":3,
			"componentType":5123,
			"count":36,
			"type":"SCALAR"
		},
		{
			"bufferView":4,
			"componentType":5126,
			"count":206,
			"max":[
				0.29998254776000977,
				0.7718871831893921,
				0.3588908314704895
			],
			"min":[
				-0.29998254776000977,
				-0.18066275119781494,
				-0.23256200551986694
			],
			"type":"VEC3"
		},
		{
			"bufferView":5,
			"componentType":5126,
			"count":206,
			"type":"VEC3"
		},
		{
			"bufferView":6,
			"componentType":5126,
			"count":206,
			"type":"VEC2"
		},
		{
			"bufferView":7,
			"componentType":5123,
			"count":492,
			"type":"SCALAR"
		}
	],
	"bufferViews":[
		{
			"buffer":0,
			"byteLength":288,
			"byteOffset":0,
			"target":34962
		},
		{
			"buffer":0,
			"byteLength":288,
			"byteOffset":288,
			"target":34962
		},
		{
			"buffer":0,
			"byteLength":192,
			"byteOffset":576,
			"target":34962
		},
		{
			"buffer":0,
			"byteLength":72,
			"byteOffset":768,
			"target":34963
		},
		{
			"buffer":0,
			"byteLength":2472,
			"byteOffset":840,
			"target":34962
		},
		{
			"buffer":0,
			"byteLength":2472,
			"byteOffset":3312,
			"target":34962
		},
		{
			"buffer":0,
			"byteLength":1648,
			"byteOffset":5784,
			"target":34962
		},
		{
			"buffer":0,
			"byteLength":984,
			"byteOffset":7432,
			"target":34963
		}
	],
	"samplers":[
		{
			"magFilter":9729,
			"minFilter":9987
		}
	],
	"buffers":[
		{
			"byteLength":8416,
			"uri":"butaca.bin"
		}
	]
}
