{
	"asset":{
		"generator":"Khronos glTF Blender I/O v4.5.47",
		"version":"2.0"
	},
	"extensionsUsed":[
		"KHR_materials_specular"
	],
	"scene":0,
	"scenes":[
		{
			"name":"Scene",
			"nodes":[
				0
			]
		}
	],
	"nodes":[
		{
			"mesh":0,
			"name":"votingdoor03",
			"translation":[
				-2.2146575450897217,
				0.3305022418498993,
				-4.567546844482422
			]
		}
	],
	"animations":[
		{
			"channels":[
				{
					"sampler":0,
					"target":{
						"node":0,
						"path":"translation"
					}
				}
			],
			"name":"door03_close",
			"samplers":[
				{
					"input":4,
					"interpolation":"LINEAR",
					"output":5
				}
			]
		},
		{
			"channels":[
				{
					"sampler":0,
					"target":{
						"node":0,
						"path":"translation"
					}
				}
			],
			"name":"door03_open",
			"samplers":[
				{
					"input":6,
					"interpolation":"LINEAR",
					"output":7
				}
			]
		}
	],
	"materials":[
		{
			"doubleSided":true,
			"emissiveFactor":[
				0.10000000149011612,
				0.10000000149011612,
				0.10000000149011612
			],
			"emissiveTexture":{
				"index":0
			},
			"extensions":{
				"KHR_materials_specular":{
					"specularFactor":0
				}
			},
			"name":"stage",
			"normalTexture":{
				"index":1
			},
			"pbrMetallicRoughness":{
				"baseColorTexture":{
					"index":2
				},
				"metallicFactor":0,
				"metallicRoughnessTexture":{
					"index":3
				}
			}
		}
	],
	"meshes":[
		{
			"name":"Circle.007",
			"primitives":[
				{
					"attributes":{
						"POSITION":0,
						"NORMAL":1,
						"TEXCOORD_0":2
					},
					"indices":3,
					"material":0
				}
			]
		}
	],
	"textures":[
		{
			"sampler":0,
			"source":0
		},
		{
			"sampler":0,
			"source":1
		},
		{
			"sampler":0,
			"source":0
		},
		{
			"sampler":0,
			"source":2
		}
	],
	"images":[
		{
			"mimeType":"image/png",
			"name":"stage_AlbedoTransparency",
			"uri":"Textures/stage_AlbedoTransparency.png"
		},
		{
			"mimeType":"image/png",
			"name":"stage_Normal",
			"uri":"Textures/stage_Normal.png"
		},
		{
			"mimeType":"image/png",
			"name":"stage_MetallicRoughness",
			"uri":"Textures/stage_MetallicRoughness.png"
		}
	],
	"accessors":[
		{
			"bufferView":0,
			"componentType":5126,
			"count":81,
			"max":[
				1.6248592138290405,
				1.3065541537571335e-08,
				1.6248594522476196
			],
			"min":[
				-1.6248589754104614,
				-0.12758296728134155,
				-1.6248589754104614
			],
			"type":"VEC3"
		},
		{
			"bufferView":1,
			"componentType":5126,
			"count":81,
			"type":"VEC3"
		},
		{
			"bufferView":2,
			"componentType":5126,
			"count":81,
			"type":"VEC2"
		},
		{
			"bufferView":3,
			"componentType":5123,
			"count":144,
			"type":"SCALAR"
		},
		{
			"bufferView":4,
			"componentType":5126,
			"count":61,
			"max":[
				2.5
			],
			"min":[
				0
			],
			"type":"SCALAR"
		},
		{
			"bufferView":5,
			"componentType":5126,
			"count":61,
			"type":"VEC3"
		},
		{
			"bufferView":6,
			"componentType":5126,
			"count":31,
			"max":[
				1.25
			],
			"min":[
				0
			],
			"type":"SCALAR"
		},
		{
			"bufferView":7,
			"componentType":5126,
			"count":31,
			"type":"VEC3"
		}
	],
	"bufferViews":[
		{
			"buffer":0,
			"byteLength":972,
			"byteOffset":0,
			"target":34962
		},
		{
			"buffer":0,
			"byteLength":972,
			"byteOffset":972,
			"target":34962
		},
		{
			"buffer":0,
			"byteLength":648,
			"byteOffset":1944,
			"target":34962
		},
		{
			"buffer":0,
			"byteLength":288,
			"byteOffset":2592,
			"target":34963
		},
		{
			"buffer":0,
			"byteLength":244,
			"byteOffset":2880
		},
		{
			"buffer":0,
			"byteLength":732,
			"byteOffset":3124
		},
		{
			"buffer":0,
			"byteLength":124,
			"byteOffset":3856
		},
		{
			"buffer":0,
			"byteLength":372,
			"byteOffset":3980
		}
	],
	"samplers":[
		{
			"magFilter":9729,
			"minFilter":9987
		}
	],
	"buffers":[
		{
			"byteLength":4352,
			"uri":"voting_door03.bin"
		}
	]
}
