{
	"asset":{
		"generator":"Khronos glTF Blender I/O v4.5.47",
		"version":"2.0"
	},
	"extensionsUsed":[
		"KHR_materials_specular"
	],
	"scene":0,
	"scenes":[
		{
			"name":"Scene",
			"nodes":[
				0,
				1,
				3
			]
		}
	],
	"nodes":[
		{
			"mesh":0,
			"name":"attendee_panel",
			"translation":[
				0,
				0.3305022716522217,
				-1.7394664287567139
			]
		},
		{
			"mesh":1,
			"name":"attendee_panel_door",
			"translation":[
				0,
				0.536983847618103,
				-1.962631344795227
			]
		},
		{
			"mesh":2,
			"name":"helices",
			"translation":[
				0,
				0.03897152096033096,
				0
			]
		},
		{
			"children":[
				2
			],
			"mesh":3,
			"name":"attendee_panel_box",
			"translation":[
				0,
				0.10652729123830795,
				-2.1731414794921875
			]
		}
	],
	"animations":[
		{
			"channels":[
				{
					"sampler":0,
					"target":{
						"node":1,
						"path":"rotation"
					}
				},
				{
					"sampler":1,
					"target":{
						"node":3,
						"path":"translation"
					}
				}
			],
			"name":"attendee_panel_close",
			"samplers":[
				{
					"input":20,
					"interpolation":"LINEAR",
					"output":21
				},
				{
					"input":20,
					"interpolation":"LINEAR",
					"output":22
				}
			]
		},
		{
			"channels":[
				{
					"sampler":0,
					"target":{
						"node":1,
						"path":"rotation"
					}
				},
				{
					"sampler":1,
					"target":{
						"node":3,
						"path":"translation"
					}
				},
				{
					"sampler":2,
					"target":{
						"node":2,
						"path":"rotation"
					}
				}
			],
			"name":"attendee_panel_open",
			"samplers":[
				{
					"input":23,
					"interpolation":"LINEAR",
					"output":24
				},
				{
					"input":23,
					"interpolation":"LINEAR",
					"output":25
				},
				{
					"input":26,
					"interpolation":"LINEAR",
					"output":27
				}
			]
		},
		{
			"channels":[
				{
					"sampler":0,
					"target":{
						"node":3,
						"path":"translation"
					}
				},
				{
					"sampler":1,
					"target":{
						"node":2,
						"path":"rotation"
					}
				}
			],
			"name":"attendee_panel_idle",
			"samplers":[
				{
					"input":28,
					"interpolation":"LINEAR",
					"output":29
				},
				{
					"input":28,
					"interpolation":"LINEAR",
					"output":30
				}
			]
		}
	],
	"materials":[
		{
			"doubleSided":true,
			"emissiveFactor":[
				0.10000000149011612,
				0.10000000149011612,
				0.10000000149011612
			],
			"emissiveTexture":{
				"index":0
			},
			"extensions":{
				"KHR_materials_specular":{
					"specularFactor":0
				}
			},
			"name":"stage",
			"normalTexture":{
				"index":1
			},
			"pbrMetallicRoughness":{
				"baseColorTexture":{
					"index":2
				},
				"metallicFactor":0,
				"metallicRoughnessTexture":{
					"index":3
				}
			}
		},
		{
			"doubleSided":true,
			"emissiveFactor":[
				0.4000000059604645,
				0.4000000059604645,
				0.4000000059604645
			],
			"emissiveTexture":{
				"index":4
			},
			"extensions":{
				"KHR_materials_specular":{
					"specularFactor":0
				}
			},
			"name":"stage_emissives",
			"normalTexture":{
				"index":5
			},
			"pbrMetallicRoughness":{
				"baseColorFactor":[
					0,
					0,
					0,
					1
				],
				"metallicFactor":0,
				"metallicRoughnessTexture":{
					"index":6
				}
			}
		}
	],
	"meshes":[
		{
			"name":"Cube.006",
			"primitives":[
				{
					"attributes":{
						"POSITION":0,
						"NORMAL":1,
						"TEXCOORD_0":2
					},
					"indices":3,
					"material":0
				}
			]
		},
		{
			"name":"Cube.008",
			"primitives":[
				{
					"attributes":{
						"POSITION":4,
						"NORMAL":5,
						"TEXCOORD_0":6
					},
					"indices":7,
					"material":0
				}
			]
		},
		{
			"name":"Plane.012",
			"primitives":[
				{
					"attributes":{
						"POSITION":8,
						"NORMAL":9,
						"TEXCOORD_0":10
					},
					"indices":11,
					"material":0
				}
			]
		},
		{
			"name":"Cube.035",
			"primitives":[
				{
					"attributes":{
						"POSITION":12,
						"NORMAL":13,
						"TEXCOORD_0":14
					},
					"indices":15,
					"material":0
				},
				{
					"attributes":{
						"POSITION":16,
						"NORMAL":17,
						"TEXCOORD_0":18
					},
					"indices":19,
					"material":1
				}
			]
		}
	],
	"textures":[
		{
			"sampler":0,
			"source":0
		},
		{
			"sampler":0,
			"source":1
		},
		{
			"sampler":0,
			"source":0
		},
		{
			"sampler":0,
			"source":2
		},
		{
			"sampler":0,
			"source":0
		},
		{
			"sampler":0,
			"source":1
		},
		{
			"sampler":0,
			"source":2
		}
	],
	"images":[
		{
			"mimeType":"image/png",
			"name":"stage_AlbedoTransparency",
			"uri":"Textures/stage_AlbedoTransparency.png"
		},
		{
			"mimeType":"image/png",
			"name":"stage_Normal",
			"uri":"Textures/stage_Normal.png"
		},
		{
			"mimeType":"image/png",
			"name":"stage_MetallicRoughness",
			"uri":"Textures/stage_MetallicRoughness.png"
		}
	],
	"accessors":[
		{
			"bufferView":0,
			"componentType":5126,
			"count":226,
			"max":[
				0.3483448624610901,
				0.22303199768066406,
				0.006592869758605957
			],
			"min":[
				-0.3483448624610901,
				-2.9802322387695312e-08,
				-0.6900968551635742
			],
			"type":"VEC3"
		},
		{
			"bufferView":1,
			"componentType":5126,
			"count":226,
			"type":"VEC3"
		},
		{
			"bufferView":2,
			"componentType":5126,
			"count":226,
			"type":"VEC2"
		},
		{
			"bufferView":3,
			"componentType":5123,
			"count":528,
			"type":"SCALAR"
		},
		{
			"bufferView":4,
			"componentType":5126,
			"count":88,
			"max":[
				0.27042555809020996,
				0,
				0.007017393596470356
			],
			"min":[
				-0.27042555809020996,
				-0.11492142081260681,
				-0.38674628734588623
			],
			"type":"VEC3"
		},
		{
			"bufferView":5,
			"componentType":5126,
			"count":88,
			"type":"VEC3"
		},
		{
			"bufferView":6,
			"componentType":5126,
			"count":88,
			"type":"VEC2"
		},
		{
			"bufferView":7,
			"componentType":5123,
			"count":168,
			"type":"SCALAR"
		},
		{
			"bufferView":8,
			"componentType":5126,
			"count":17,
			"max":[
				0.1588112860918045,
				-0.09833592176437378,
				0.1588112860918045
			],
			"min":[
				-0.1588112860918045,
				-0.09833592176437378,
				-0.1588112860918045
			],
			"type":"VEC3"
		},
		{
			"bufferView":9,
			"componentType":5126,
			"count":17,
			"type":"VEC3"
		},
		{
			"bufferView":10,
			"componentType":5126,
			"count":17,
			"type":"VEC2"
		},
		{
			"bufferView":11,
			"componentType":5123,
			"count":48,
			"type":"SCALAR"
		},
		{
			"bufferView":12,
			"componentType":5126,
			"count":124,
			"max":[
				0.17864230275154114,
				0.32824093103408813,
				0.1449591964483261
			],
			"min":[
				-0.17864230275154114,
				-0.08626453578472137,
				-0.14495877921581268
			],
			"type":"VEC3"
		},
		{
			"bufferView":13,
			"componentType":5126,
			"count":124,
			"type":"VEC3"
		},
		{
			"bufferView":14,
			"componentType":5126,
			"count":124,
			"type":"VEC2"
		},
		{
			"bufferView":15,
			"componentType":5123,
			"count":348,
			"type":"SCALAR"
		},
		{
			"bufferView":16,
			"componentType":5126,
			"count":58,
			"max":[
				0.17864230275154114,
				0.36430954933166504,
				0.1449591964483261
			],
			"min":[
				-0.17864230275154114,
				0.044745005667209625,
				-0.14495877921581268
			],
			"type":"VEC3"
		},
		{
			"bufferView":17,
			"componentType":5126,
			"count":58,
			"type":"VEC3"
		},
		{
			"bufferView":18,
			"componentType":5126,
			"count":58,
			"type":"VEC2"
		},
		{
			"bufferView":19,
			"componentType":5123,
			"count":96,
			"type":"SCALAR"
		},
		{
			"bufferView":20,
			"componentType":5126,
			"count":16,
			"max":[
				0.625
			],
			"min":[
				0
			],
			"type":"SCALAR"
		},
		{
			"bufferView":21,
			"componentType":5126,
			"count":16,
			"type":"VEC4"
		},
		{
			"bufferView":22,
			"componentType":5126,
			"count":16,
			"type":"VEC3"
		},
		{
			"bufferView":23,
			"componentType":5126,
			"count":21,
			"max":[
				0.8333333333333334
			],
			"min":[
				0
			],
			"type":"SCALAR"
		},
		{
			"bufferView":24,
			"componentType":5126,
			"count":21,
			"type":"VEC4"
		},
		{
			"bufferView":25,
			"componentType":5126,
			"count":21,
			"type":"VEC3"
		},
		{
			"bufferView":26,
			"componentType":5126,
			"count":20,
			"max":[
				0.8333333333333334
			],
			"min":[
				0.041666666666666664
			],
			"type":"SCALAR"
		},
		{
			"bufferView":27,
			"componentType":5126,
			"count":20,
			"type":"VEC4"
		},
		{
			"bufferView":28,
			"componentType":5126,
			"count":31,
			"max":[
				1.25
			],
			"min":[
				0
			],
			"type":"SCALAR"
		},
		{
			"bufferView":29,
			"componentType":5126,
			"count":31,
			"type":"VEC3"
		},
		{
			"bufferView":30,
			"componentType":5126,
			"count":31,
			"type":"VEC4"
		}
	],
	"bufferViews":[
		{
			"buffer":0,
			"byteLength":2712,
			"byteOffset":0,
			"target":34962
		},
		{
			"buffer":0,
			"byteLength":2712,
			"byteOffset":2712,
			"target":34962
		},
		{
			"buffer":0,
			"byteLength":1808,
			"byteOffset":5424,
			"target":34962
		},
		{
			"buffer":0,
			"byteLength":1056,
			"byteOffset":7232,
			"target":34963
		},
		{
			"buffer":0,
			"byteLength":1056,
			"byteOffset":8288,
			"target":34962
		},
		{
			"buffer":0,
			"byteLength":1056,
			"byteOffset":9344,
			"target":34962
		},
		{
			"buffer":0,
			"byteLength":704,
			"byteOffset":10400,
			"target":34962
		},
		{
			"buffer":0,
			"byteLength":336,
			"byteOffset":11104,
			"target":34963
		},
		{
			"buffer":0,
			"byteLength":204,
			"byteOffset":11440,
			"target":34962
		},
		{
			"buffer":0,
			"byteLength":204,
			"byteOffset":11644,
			"target":34962
		},
		{
			"buffer":0,
			"byteLength":136,
			"byteOffset":11848,
			"target":34962
		},
		{
			"buffer":0,
			"byteLength":96,
			"byteOffset":11984,
			"target":34963
		},
		{
			"buffer":0,
			"byteLength":1488,
			"byteOffset":12080,
			"target":34962
		},
		{
			"buffer":0,
			"byteLength":1488,
			"byteOffset":13568,
			"target":34962
		},
		{
			"buffer":0,
			"byteLength":992,
			"byteOffset":15056,
			"target":34962
		},
		{
			"buffer":0,
			"byteLength":696,
			"byteOffset":16048,
			"target":34963
		},
		{
			"buffer":0,
			"byteLength":696,
			"byteOffset":16744,
			"target":34962
		},
		{
			"buffer":0,
			"byteLength":696,
			"byteOffset":17440,
			"target":34962
		},
		{
			"buffer":0,
			"byteLength":464,
			"byteOffset":18136,
			"target":34962
		},
		{
			"buffer":0,
			"byteLength":192,
			"byteOffset":18600,
			"target":34963
		},
		{
			"buffer":0,
			"byteLength":64,
			"byteOffset":18792
		},
		{
			"buffer":0,
			"byteLength":256,
			"byteOffset":18856
		},
		{
			"buffer":0,
			"byteLength":192,
			"byteOffset":19112
		},
		{
			"buffer":0,
			"byteLength":84,
			"byteOffset":19304
		},
		{
			"buffer":0,
			"byteLength":336,
			"byteOffset":19388
		},
		{
			"buffer":0,
			"byteLength":252,
			"byteOffset":19724
		},
		{
			"buffer":0,
			"byteLength":80,
			"byteOffset":19976
		},
		{
			"buffer":0,
			"byteLength":320,
			"byteOffset":20056
		},
		{
			"buffer":0,
			"byteLength":124,
			"byteOffset":20376
		},
		{
			"buffer":0,
			"byteLength":372,
			"byteOffset":20500
		},
		{
			"buffer":0,
			"byteLength":496,
			"byteOffset":20872
		}
	],
	"samplers":[
		{
			"magFilter":9729,
			"minFilter":9987
		}
	],
	"buffers":[
		{
			"byteLength":21368,
			"uri":"attendee_panel.bin"
		}
	]
}
