{
	"asset":{
		"generator":"Khronos glTF Blender I/O v4.5.47",
		"version":"2.0"
	},
	"extensionsUsed":[
		"KHR_materials_specular"
	],
	"scene":0,
	"scenes":[
		{
			"name":"Scene",
			"nodes":[
				0,
				1,
				2,
				3,
				4,
				5,
				6
			]
		}
	],
	"nodes":[
		{
			"mesh":0,
			"name":"publicstage"
		},
		{
			"mesh":1,
			"name":"privatestage"
		},
		{
			"mesh":2,
			"name":"sharescreen",
			"translation":[
				0,
				3.6682991981506348,
				5.773467063903809
			]
		},
		{
			"mesh":3,
			"name":"banners",
			"translation":[
				4.464335918426514,
				0.175420343875885,
				5.491531848907471
			]
		},
		{
			"mesh":4,
			"name":"plantitas",
			"translation":[
				-6.056879043579102,
				0,
				6.060687065124512
			]
		},
		{
			"mesh":5,
			"name":"arbustitos",
			"translation":[
				-6.056879043579102,
				0,
				6.060687065124512
			]
		},
		{
			"mesh":6,
			"name":"solarpanels",
			"translation":[
				-0.8097715973854065,
				0.6517370939254761,
				4.35495138168335
			]
		}
	],
	"materials":[
		{
			"doubleSided":true,
			"emissiveFactor":[
				0.10000000149011612,
				0.10000000149011612,
				0.10000000149011612
			],
			"emissiveTexture":{
				"index":0
			},
			"extensions":{
				"KHR_materials_specular":{
					"specularFactor":0
				}
			},
			"name":"stage",
			"normalTexture":{
				"index":1
			},
			"pbrMetallicRoughness":{
				"baseColorTexture":{
					"index":2
				},
				"metallicFactor":0,
				"metallicRoughnessTexture":{
					"index":3
				}
			}
		},
		{
			"alphaMode":"BLEND",
			"doubleSided":true,
			"extensions":{
				"KHR_materials_specular":{
					"specularFactor":0
				}
			},
			"name":"stage_alphatest",
			"normalTexture":{
				"index":4
			},
			"pbrMetallicRoughness":{
				"baseColorTexture":{
					"index":5
				},
				"metallicFactor":0,
				"metallicRoughnessTexture":{
					"index":6
				}
			}
		}
	],
	"meshes":[
		{
			"name":"Cylinder.006",
			"primitives":[
				{
					"attributes":{
						"POSITION":0,
						"NORMAL":1,
						"TEXCOORD_0":2,
						"COLOR_0":3,
						"COLOR_1":4
					},
					"indices":5,
					"material":0
				}
			]
		},
		{
			"name":"Cylinder.008",
			"primitives":[
				{
					"attributes":{
						"POSITION":6,
						"NORMAL":7,
						"TEXCOORD_0":8,
						"COLOR_0":9,
						"COLOR_1":10
					},
					"indices":11,
					"material":0
				}
			]
		},
		{
			"name":"Cube.003",
			"primitives":[
				{
					"attributes":{
						"POSITION":12,
						"NORMAL":13,
						"TEXCOORD_0":14
					},
					"indices":15,
					"material":0
				}
			]
		},
		{
			"name":"Cube.004",
			"primitives":[
				{
					"attributes":{
						"POSITION":16,
						"NORMAL":17,
						"TEXCOORD_0":18
					},
					"indices":19,
					"material":0
				}
			]
		},
		{
			"name":"Cylinder.024",
			"primitives":[
				{
					"attributes":{
						"POSITION":20,
						"NORMAL":21,
						"TEXCOORD_0":22
					},
					"indices":23,
					"material":0
				},
				{
					"attributes":{
						"POSITION":24,
						"NORMAL":25,
						"TEXCOORD_0":26
					},
					"indices":27,
					"material":1
				}
			]
		},
		{
			"name":"Cylinder.017",
			"primitives":[
				{
					"attributes":{
						"POSITION":28,
						"NORMAL":29,
						"TEXCOORD_0":30
					},
					"indices":31,
					"material":0
				}
			]
		},
		{
			"name":"Plane.123",
			"primitives":[
				{
					"attributes":{
						"POSITION":32,
						"NORMAL":33,
						"TEXCOORD_0":34
					},
					"indices":35,
					"material":0
				}
			]
		}
	],
	"textures":[
		{
			"sampler":0,
			"source":0
		},
		{
			"sampler":0,
			"source":1
		},
		{
			"sampler":0,
			"source":0
		},
		{
			"sampler":0,
			"source":2
		},
		{
			"sampler":0,
			"source":1
		},
		{
			"sampler":0,
			"source":0
		},
		{
			"sampler":0,
			"source":2
		}
	],
	"images":[
		{
			"mimeType":"image/png",
			"name":"stage_AlbedoTransparency",
			"uri":"Textures/stage_AlbedoTransparency.png"
		},
		{
			"mimeType":"image/png",
			"name":"stage_Normal",
			"uri":"Textures/stage_Normal.png"
		},
		{
			"mimeType":"image/png",
			"name":"stage_MetallicRoughness",
			"uri":"Textures/stage_MetallicRoughness.png"
		}
	],
	"accessors":[
		{
			"bufferView":0,
			"componentType":5126,
			"count":409,
			"max":[
				7.452916145324707,
				0.3305022418498993,
				3.092949390411377
			],
			"min":[
				-7.452916145324707,
				-2.9802322387695312e-08,
				-7.540063858032227
			],
			"type":"VEC3"
		},
		{
			"bufferView":1,
			"componentType":5126,
			"count":409,
			"type":"VEC3"
		},
		{
			"bufferView":2,
			"componentType":5126,
			"count":409,
			"type":"VEC2"
		},
		{
			"bufferView":3,
			"componentType":5121,
			"count":409,
			"normalized":true,
			"type":"VEC4"
		},
		{
			"bufferView":4,
			"componentType":5123,
			"count":409,
			"normalized":true,
			"type":"VEC4"
		},
		{
			"bufferView":5,
			"componentType":5123,
			"count":1410,
			"type":"SCALAR"
		},
		{
			"bufferView":6,
			"componentType":5126,
			"count":1334,
			"max":[
				7.478821754455566,
				2.8145198822021484,
				7.62589168548584
			],
			"min":[
				-7.478821754455566,
				0,
				-1.6795575618743896
			],
			"type":"VEC3"
		},
		{
			"bufferView":7,
			"componentType":5126,
			"count":1334,
			"type":"VEC3"
		},
		{
			"bufferView":8,
			"componentType":5126,
			"count":1334,
			"type":"VEC2"
		},
		{
			"bufferView":9,
			"componentType":5121,
			"count":1334,
			"normalized":true,
			"type":"VEC4"
		},
		{
			"bufferView":10,
			"componentType":5123,
			"count":1334,
			"normalized":true,
			"type":"VEC4"
		},
		{
			"bufferView":11,
			"componentType":5123,
			"count":3654,
			"type":"SCALAR"
		},
		{
			"bufferView":12,
			"componentType":5126,
			"count":291,
			"max":[
				2.744729995727539,
				1.5439109802246094,
				0.6548219919204712
			],
			"min":[
				-2.744729995727539,
				-1.8306221961975098,
				-0.2859092950820923
			],
			"type":"VEC3"
		},
		{
			"bufferView":13,
			"componentType":5126,
			"count":291,
			"type":"VEC3"
		},
		{
			"bufferView":14,
			"componentType":5126,
			"count":291,
			"type":"VEC2"
		},
		{
			"bufferView":15,
			"componentType":5123,
			"count":978,
			"type":"SCALAR"
		},
		{
			"bufferView":16,
			"componentType":5126,
			"count":496,
			"max":[
				0.9516810178756714,
				4.023887634277344,
				0.7411292791366577
			],
			"min":[
				-9.880352973937988,
				-0.175420343875885,
				-0.7411292791366577
			],
			"type":"VEC3"
		},
		{
			"bufferView":17,
			"componentType":5126,
			"count":496,
			"type":"VEC3"
		},
		{
			"bufferView":18,
			"componentType":5126,
			"count":496,
			"type":"VEC2"
		},
		{
			"bufferView":19,
			"componentType":5123,
			"count":1836,
			"type":"SCALAR"
		},
		{
			"bufferView":20,
			"componentType":5126,
			"count":424,
			"max":[
				13.974376678466797,
				6.397891998291016,
				1.6731157302856445
			],
			"min":[
				-1.7803375720977783,
				-0.2854791581630707,
				-3.8120601177215576
			],
			"type":"VEC3"
		},
		{
			"bufferView":21,
			"componentType":5126,
			"count":424,
			"type":"VEC3"
		},
		{
			"bufferView":22,
			"componentType":5126,
			"count":424,
			"type":"VEC2"
		},
		{
			"bufferView":23,
			"componentType":5123,
			"count":1635,
			"type":"SCALAR"
		},
		{
			"bufferView":24,
			"componentType":5126,
			"count":2344,
			"max":[
				14.029071807861328,
				6.616765022277832,
				1.8756648302078247
			],
			"min":[
				-1.9157896041870117,
				-0.34003496170043945,
				-7.467666149139404
			],
			"type":"VEC3"
		},
		{
			"bufferView":25,
			"componentType":5126,
			"count":2344,
			"type":"VEC3"
		},
		{
			"bufferView":26,
			"componentType":5126,
			"count":2344,
			"type":"VEC2"
		},
		{
			"bufferView":27,
			"componentType":5123,
			"count":3516,
			"type":"SCALAR"
		},
		{
			"bufferView":28,
			"componentType":5126,
			"count":2942,
			"max":[
				8.930347442626953,
				1.0335454940795898,
				-0.4662914276123047
			],
			"min":[
				3.155594825744629,
				0.5817787051200867,
				-2.8565380573272705
			],
			"type":"VEC3"
		},
		{
			"bufferView":29,
			"componentType":5126,
			"count":2942,
			"type":"VEC3"
		},
		{
			"bufferView":30,
			"componentType":5126,
			"count":2942,
			"type":"VEC2"
		},
		{
			"bufferView":31,
			"componentType":5123,
			"count":4335,
			"type":"SCALAR"
		},
		{
			"bufferView":32,
			"componentType":5126,
			"count":756,
			"max":[
				2.5028891563415527,
				1.3153982162475586,
				1.769945740699768
			],
			"min":[
				-0.40000078082084656,
				-0.33517929911613464,
				-0.28284260630607605
			],
			"type":"VEC3"
		},
		{
			"bufferView":33,
			"componentType":5126,
			"count":756,
			"type":"VEC3"
		},
		{
			"bufferView":34,
			"componentType":5126,
			"count":756,
			"type":"VEC2"
		},
		{
			"bufferView":35,
			"componentType":5123,
			"count":1932,
			"type":"SCALAR"
		}
	],
	"bufferViews":[
		{
			"buffer":0,
			"byteLength":4908,
			"byteOffset":0,
			"target":34962
		},
		{
			"buffer":0,
			"byteLength":4908,
			"byteOffset":4908,
			"target":34962
		},
		{
			"buffer":0,
			"byteLength":3272,
			"byteOffset":9816,
			"target":34962
		},
		{
			"buffer":0,
			"byteLength":1636,
			"byteOffset":13088,
			"target":34962
		},
		{
			"buffer":0,
			"byteLength":3272,
			"byteOffset":14724,
			"target":34962
		},
		{
			"buffer":0,
			"byteLength":2820,
			"byteOffset":17996,
			"target":34963
		},
		{
			"buffer":0,
			"byteLength":16008,
			"byteOffset":20816,
			"target":34962
		},
		{
			"buffer":0,
			"byteLength":16008,
			"byteOffset":36824,
			"target":34962
		},
		{
			"buffer":0,
			"byteLength":10672,
			"byteOffset":52832,
			"target":34962
		},
		{
			"buffer":0,
			"byteLength":5336,
			"byteOffset":63504,
			"target":34962
		},
		{
			"buffer":0,
			"byteLength":10672,
			"byteOffset":68840,
			"target":34962
		},
		{
			"buffer":0,
			"byteLength":7308,
			"byteOffset":79512,
			"target":34963
		},
		{
			"buffer":0,
			"byteLength":3492,
			"byteOffset":86820,
			"target":34962
		},
		{
			"buffer":0,
			"byteLength":3492,
			"byteOffset":90312,
			"target":34962
		},
		{
			"buffer":0,
			"byteLength":2328,
			"byteOffset":93804,
			"target":34962
		},
		{
			"buffer":0,
			"byteLength":1956,
			"byteOffset":96132,
			"target":34963
		},
		{
			"buffer":0,
			"byteLength":5952,
			"byteOffset":98088,
			"target":34962
		},
		{
			"buffer":0,
			"byteLength":5952,
			"byteOffset":104040,
			"target":34962
		},
		{
			"buffer":0,
			"byteLength":3968,
			"byteOffset":109992,
			"target":34962
		},
		{
			"buffer":0,
			"byteLength":3672,
			"byteOffset":113960,
			"target":34963
		},
		{
			"buffer":0,
			"byteLength":5088,
			"byteOffset":117632,
			"target":34962
		},
		{
			"buffer":0,
			"byteLength":5088,
			"byteOffset":122720,
			"target":34962
		},
		{
			"buffer":0,
			"byteLength":3392,
			"byteOffset":127808,
			"target":34962
		},
		{
			"buffer":0,
			"byteLength":3270,
			"byteOffset":131200,
			"target":34963
		},
		{
			"buffer":0,
			"byteLength":28128,
			"byteOffset":134472,
			"target":34962
		},
		{
			"buffer":0,
			"byteLength":28128,
			"byteOffset":162600,
			"target":34962
		},
		{
			"buffer":0,
			"byteLength":18752,
			"byteOffset":190728,
			"target":34962
		},
		{
			"buffer":0,
			"byteLength":7032,
			"byteOffset":209480,
			"target":34963
		},
		{
			"buffer":0,
			"byteLength":35304,
			"byteOffset":216512,
			"target":34962
		},
		{
			"buffer":0,
			"byteLength":35304,
			"byteOffset":251816,
			"target":34962
		},
		{
			"buffer":0,
			"byteLength":23536,
			"byteOffset":287120,
			"target":34962
		},
		{
			"buffer":0,
			"byteLength":8670,
			"byteOffset":310656,
			"target":34963
		},
		{
			"buffer":0,
			"byteLength":9072,
			"byteOffset":319328,
			"target":34962
		},
		{
			"buffer":0,
			"byteLength":9072,
			"byteOffset":328400,
			"target":34962
		},
		{
			"buffer":0,
			"byteLength":6048,
			"byteOffset":337472,
			"target":34962
		},
		{
			"buffer":0,
			"byteLength":3864,
			"byteOffset":343520,
			"target":34963
		}
	],
	"samplers":[
		{
			"magFilter":9729,
			"minFilter":9987
		}
	],
	"buffers":[
		{
			"byteLength":347384,
			"uri":"stage.bin"
		}
	]
}
